<svg xmlns="http://www.w3.org/2000/svg" viewBox="0 0 340 230" width="340" height="230">
  <defs><clipPath id="langsRound"><rect width="340" height="230" rx="18"/></clipPath></defs>
  <g clip-path="url(#langsRound)">
    <rect width="340" height="230" fill="#1a0b2e"/>
    <text x="20" y="28" font-family="'Segoe UI',sans-serif" font-size="15" font-weight="700" fill="#f6e9ff">Most Used Languages</text>
    <g transform="translate(20,54)"><g transform="translate(0,0)">
    <circle cx="4" cy="-4" r="4" fill="#f1e05a"/>
    <text x="14" y="0" font-family="'Segoe UI',sans-serif" font-size="12.5" fill="#d9b3f0">JavaScript</text>
    <text x="240" y="0" text-anchor="end" font-family="'Segoe UI',sans-serif" font-size="12.5" fill="#f6e9ff">34%</text>
    <rect x="0" y="6" width="200" height="7" rx="3.5" fill="#ffffff10"/>
    <rect x="0" y="6" width="0" height="7" rx="3.5" fill="#f1e05a">
      <animate attributeName="width" from="0" to="68" begin="0.40s" dur="0.9s" fill="freeze" calcMode="spline" keySplines="0.2 0.8 0.2 1"/>
    </rect>
  </g>
<g transform="translate(0,30)">
    <circle cx="4" cy="-4" r="4" fill="#f34b7d"/>
    <text x="14" y="0" font-family="'Segoe UI',sans-serif" font-size="12.5" fill="#d9b3f0">C / C++</text>
    <text x="240" y="0" text-anchor="end" font-family="'Segoe UI',sans-serif" font-size="12.5" fill="#f6e9ff">24%</text>
    <rect x="0" y="6" width="200" height="7" rx="3.5" fill="#ffffff10"/>
    <rect x="0" y="6" width="0" height="7" rx="3.5" fill="#f34b7d">
      <animate attributeName="width" from="0" to="48" begin="0.55s" dur="0.9s" fill="freeze" calcMode="spline" keySplines="0.2 0.8 0.2 1"/>
    </rect>
  </g>
<g transform="translate(0,60)">
    <circle cx="4" cy="-4" r="4" fill="#e34c26"/>
    <text x="14" y="0" font-family="'Segoe UI',sans-serif" font-size="12.5" fill="#d9b3f0">HTML</text>
    <text x="240" y="0" text-anchor="end" font-family="'Segoe UI',sans-serif" font-size="12.5" fill="#f6e9ff">16%</text>
    <rect x="0" y="6" width="200" height="7" rx="3.5" fill="#ffffff10"/>
    <rect x="0" y="6" width="0" height="7" rx="3.5" fill="#e34c26">
      <animate attributeName="width" from="0" to="32" begin="0.70s" dur="0.9s" fill="freeze" calcMode="spline" keySplines="0.2 0.8 0.2 1"/>
    </rect>
  </g>
<g transform="translate(0,90)">
    <circle cx="4" cy="-4" r="4" fill="#563d7c"/>
    <text x="14" y="0" font-family="'Segoe UI',sans-serif" font-size="12.5" fill="#d9b3f0">CSS</text>
    <text x="240" y="0" text-anchor="end" font-family="'Segoe UI',sans-serif" font-size="12.5" fill="#f6e9ff">12%</text>
    <rect x="0" y="6" width="200" height="7" rx="3.5" fill="#ffffff10"/>
    <rect x="0" y="6" width="0" height="7" rx="3.5" fill="#563d7c">
      <animate attributeName="width" from="0" to="24" begin="0.85s" dur="0.9s" fill="freeze" calcMode="spline" keySplines="0.2 0.8 0.2 1"/>
    </rect>
  </g>
<g transform="translate(0,120)">
    <circle cx="4" cy="-4" r="4" fill="#e16737"/>
    <text x="14" y="0" font-family="'Segoe UI',sans-serif" font-size="12.5" fill="#d9b3f0">MATLAB</text>
    <text x="240" y="0" text-anchor="end" font-family="'Segoe UI',sans-serif" font-size="12.5" fill="#f6e9ff">9%</text>
    <rect x="0" y="6" width="200" height="7" rx="3.5" fill="#ffffff10"/>
    <rect x="0" y="6" width="0" height="7" rx="3.5" fill="#e16737">
      <animate attributeName="width" from="0" to="18" begin="1.00s" dur="0.9s" fill="freeze" calcMode="spline" keySplines="0.2 0.8 0.2 1"/>
    </rect>
  </g>
<g transform="translate(0,150)">
    <circle cx="4" cy="-4" r="4" fill="#8b3fd1"/>
    <text x="14" y="0" font-family="'Segoe UI',sans-serif" font-size="12.5" fill="#d9b3f0">Other</text>
    <text x="240" y="0" text-anchor="end" font-family="'Segoe UI',sans-serif" font-size="12.5" fill="#f6e9ff">5%</text>
    <rect x="0" y="6" width="200" height="7" rx="3.5" fill="#ffffff10"/>
    <rect x="0" y="6" width="0" height="7" rx="3.5" fill="#8b3fd1">
      <animate attributeName="width" from="0" to="10" begin="1.15s" dur="0.9s" fill="freeze" calcMode="spline" keySplines="0.2 0.8 0.2 1"/>
    </rect>
  </g></g>
  </g>
</svg>